<svg xmlns="http://www.w3.org/2000/svg" width="32" height="32" viewBox="0 0 32 32">
  <rect width="32" height="32" rx="6" fill="#A13E1A"/>
  <g transform="translate(4, 4)" stroke="#FFFFFF" stroke-width="2" stroke-linecap="round" stroke-linejoin="round" fill="none">
    <path d="M10.2 18H4.774a1.5 1.5 0 0 1-1.352-.97 11 11 0 0 1 .132-6.487"></path>
    <path d="M18 10.2V4.774a1.5 1.5 0 0 0-.97-1.352 11 11 0 0 0-6.486.132"></path>
    <path d="M18 5a4 3 0 0 1 4 3 2 2 0 0 1-2 2 10 10 0 0 0-5.139 1.42"></path>
    <path d="M5 18a3 4 0 0 0 3 4 2 2 0 0 0 2-2 10 10 0 0 1 1.42-5.14"></path>
    <path d="M8.709 2.554a10 10 0 0 0-6.155 6.155 1.5 1.5 0 0 0 .676 1.626l9.807 5.42a2 2 0 0 0 2.718-2.718l-5.42-9.807a1.5 1.5 0 0 0-1.626-.676"></path>
  </g>
</svg>
